# xmcd
#
# Track frame offsets: 
#        300
#        37258
#        53130
#        73548
#        90235
#        122052
#        144877
#        158399
#        173402
#        192745
#        207013
#        228802
#
# Disc length: 3147 seconds
#
# Revision: 3
# Processed by: cddbd v1.5.2PL0 Copyright (c) Steve Scherf et al.
# Submitted via: ExactAudioCopy v1.0b1
#
DISCID=950c470c
DTITLE=Bobby "Blue" Bland - Long Beach 1983
DYEAR=2006
DGENRE=Soul Blues
TTITLE0=Mels's Groove (Instrumental)
TTITLE1=Ain't That Loving You
TTITLE2=I'll Take Care Of You
TTITLE3=Soul Of A Man
TTITLE4=I Intend To Take Your Place
TTITLE5=Soon As The Weather Breaks
TTITLE6=Today I Started Loving You Again
TTITLE7=Share Your Love With Me
TTITLE8=Recess In Heaven
TTITLE9=That's The Way Love Is - Ain't Nothin' You Can Do
TTITLE10=The Feeling Is Gone - Stormy Monday Blues
TTITLE11=Farther Up The Road
EXTD=
EXTT0=
EXTT1=
EXTT2=
EXTT3=
EXTT4=
EXTT5=
EXTT6=
EXTT7=
EXTT8=
EXTT9=
EXTT10=
EXTT11=
PLAYORDER=
